<mxfile host="Electron" agent="Mozilla/5.0 (Windows NT 10.0; Win64; x64) AppleWebKit/537.36 (KHTML, like Gecko) draw.io/26.0.16 Chrome/132.0.6834.196 Electron/34.2.0 Safari/537.36" version="26.0.16">
  <diagram name="Page-1" id="jmnB9CLL446C0uxaAuo1">
    <mxGraphModel dx="1909" dy="1160" grid="1" gridSize="10" guides="1" tooltips="1" connect="1" arrows="1" fold="1" page="1" pageScale="1" pageWidth="827" pageHeight="1169" math="0" shadow="0">
      <root>
        <mxCell id="0" />
        <mxCell id="1" parent="0" />
        <mxCell id="TxU8frnE93pZdJ28Z_om-1" value="&lt;b&gt;Clé&lt;/b&gt;" style="rounded=1;whiteSpace=wrap;html=1;fillColor=#e1d5e7;strokeColor=#9673a6;strokeWidth=2;glass=0;shadow=1;" vertex="1" parent="1">
          <mxGeometry x="110" y="630" width="120" height="60" as="geometry" />
        </mxCell>
        <mxCell id="TxU8frnE93pZdJ28Z_om-2" value="&lt;b&gt;&lt;font style=&quot;font-size: 21px;&quot;&gt;Contrôleur&lt;/font&gt;&lt;/b&gt;" style="rounded=1;whiteSpace=wrap;html=1;fillColor=#f5f5f5;strokeColor=#666666;fontColor=#333333;shadow=1;" vertex="1" parent="1">
          <mxGeometry x="440" y="150" width="160" height="410" as="geometry" />
        </mxCell>
        <mxCell id="TxU8frnE93pZdJ28Z_om-4" style="edgeStyle=orthogonalEdgeStyle;rounded=0;orthogonalLoop=1;jettySize=auto;html=1;exitX=1;exitY=0.25;exitDx=0;exitDy=0;strokeColor=#FF3333;entryX=0.01;entryY=0.086;entryDx=0;entryDy=0;entryPerimeter=0;shadow=1;" edge="1" parent="1" source="TxU8frnE93pZdJ28Z_om-1" target="TxU8frnE93pZdJ28Z_om-24">
          <mxGeometry relative="1" as="geometry">
            <mxPoint x="440" y="225" as="targetPoint" />
          </mxGeometry>
        </mxCell>
        <mxCell id="TxU8frnE93pZdJ28Z_om-6" value="V+" style="edgeLabel;html=1;align=center;verticalAlign=middle;resizable=0;points=[];" vertex="1" connectable="0" parent="TxU8frnE93pZdJ28Z_om-4">
          <mxGeometry x="-0.0447" y="1" relative="1" as="geometry">
            <mxPoint x="-11" as="offset" />
          </mxGeometry>
        </mxCell>
        <mxCell id="TxU8frnE93pZdJ28Z_om-5" style="edgeStyle=orthogonalEdgeStyle;rounded=0;orthogonalLoop=1;jettySize=auto;html=1;exitX=1;exitY=0.75;exitDx=0;exitDy=0;entryX=0.01;entryY=0.158;entryDx=0;entryDy=0;entryPerimeter=0;shadow=1;" edge="1" parent="1" source="TxU8frnE93pZdJ28Z_om-1" target="TxU8frnE93pZdJ28Z_om-24">
          <mxGeometry relative="1" as="geometry" />
        </mxCell>
        <mxCell id="TxU8frnE93pZdJ28Z_om-7" value="V-" style="edgeLabel;html=1;align=center;verticalAlign=middle;resizable=0;points=[];" vertex="1" connectable="0" parent="TxU8frnE93pZdJ28Z_om-5">
          <mxGeometry x="-0.0961" y="-1" relative="1" as="geometry">
            <mxPoint x="-6" as="offset" />
          </mxGeometry>
        </mxCell>
        <mxCell id="TxU8frnE93pZdJ28Z_om-8" value="&lt;b&gt;Indicator&lt;/b&gt;" style="rounded=1;whiteSpace=wrap;html=1;strokeWidth=2;glass=0;shadow=1;fillColor=#d5e8d4;strokeColor=#82b366;" vertex="1" parent="1">
          <mxGeometry x="110" y="250" width="120" height="60" as="geometry" />
        </mxCell>
        <mxCell id="TxU8frnE93pZdJ28Z_om-9" style="edgeStyle=orthogonalEdgeStyle;rounded=0;orthogonalLoop=1;jettySize=auto;html=1;exitX=1;exitY=0.25;exitDx=0;exitDy=0;entryX=-0.01;entryY=0.28;entryDx=0;entryDy=0;entryPerimeter=0;fillColor=#d5e8d4;strokeColor=#82b366;shadow=1;" edge="1" parent="1" source="TxU8frnE93pZdJ28Z_om-8" target="TxU8frnE93pZdJ28Z_om-2">
          <mxGeometry relative="1" as="geometry" />
        </mxCell>
        <mxCell id="TxU8frnE93pZdJ28Z_om-11" value="V+" style="edgeLabel;html=1;align=center;verticalAlign=middle;resizable=0;points=[];" vertex="1" connectable="0" parent="TxU8frnE93pZdJ28Z_om-9">
          <mxGeometry x="-0.1098" y="1" relative="1" as="geometry">
            <mxPoint x="-2" as="offset" />
          </mxGeometry>
        </mxCell>
        <mxCell id="TxU8frnE93pZdJ28Z_om-10" style="edgeStyle=orthogonalEdgeStyle;rounded=0;orthogonalLoop=1;jettySize=auto;html=1;exitX=1;exitY=0.75;exitDx=0;exitDy=0;entryX=0.006;entryY=0.352;entryDx=0;entryDy=0;entryPerimeter=0;strokeColor=#743B00;shadow=1;" edge="1" parent="1" source="TxU8frnE93pZdJ28Z_om-8" target="TxU8frnE93pZdJ28Z_om-2">
          <mxGeometry relative="1" as="geometry" />
        </mxCell>
        <mxCell id="TxU8frnE93pZdJ28Z_om-12" value="V-" style="edgeLabel;html=1;align=center;verticalAlign=middle;resizable=0;points=[];" vertex="1" connectable="0" parent="TxU8frnE93pZdJ28Z_om-10">
          <mxGeometry x="-0.1463" y="-3" relative="1" as="geometry">
            <mxPoint as="offset" />
          </mxGeometry>
        </mxCell>
        <mxCell id="TxU8frnE93pZdJ28Z_om-13" value="&lt;b&gt;Switch&lt;/b&gt;" style="rounded=1;whiteSpace=wrap;html=1;fillColor=#dae8fc;strokeColor=#6c8ebf;strokeWidth=2;glass=0;shadow=1;" vertex="1" parent="1">
          <mxGeometry x="110" y="330" width="120" height="60" as="geometry" />
        </mxCell>
        <mxCell id="TxU8frnE93pZdJ28Z_om-14" style="edgeStyle=orthogonalEdgeStyle;rounded=0;orthogonalLoop=1;jettySize=auto;html=1;exitX=1;exitY=0.25;exitDx=0;exitDy=0;entryX=0.015;entryY=0.475;entryDx=0;entryDy=0;entryPerimeter=0;fillColor=#dae8fc;strokeColor=#6c8ebf;shadow=1;" edge="1" parent="1" source="TxU8frnE93pZdJ28Z_om-13" target="TxU8frnE93pZdJ28Z_om-2">
          <mxGeometry relative="1" as="geometry" />
        </mxCell>
        <mxCell id="TxU8frnE93pZdJ28Z_om-16" value="V+" style="edgeLabel;html=1;align=center;verticalAlign=middle;resizable=0;points=[];" vertex="1" connectable="0" parent="TxU8frnE93pZdJ28Z_om-14">
          <mxGeometry x="-0.1309" relative="1" as="geometry">
            <mxPoint as="offset" />
          </mxGeometry>
        </mxCell>
        <mxCell id="TxU8frnE93pZdJ28Z_om-15" style="edgeStyle=orthogonalEdgeStyle;rounded=0;orthogonalLoop=1;jettySize=auto;html=1;exitX=1;exitY=0.75;exitDx=0;exitDy=0;entryX=0.002;entryY=0.547;entryDx=0;entryDy=0;entryPerimeter=0;fillColor=#ffe6cc;strokeColor=light-dark(#ff9500, #996500);shadow=1;" edge="1" parent="1" source="TxU8frnE93pZdJ28Z_om-13" target="TxU8frnE93pZdJ28Z_om-2">
          <mxGeometry relative="1" as="geometry" />
        </mxCell>
        <mxCell id="TxU8frnE93pZdJ28Z_om-17" value="V-" style="edgeLabel;html=1;align=center;verticalAlign=middle;resizable=0;points=[];" vertex="1" connectable="0" parent="TxU8frnE93pZdJ28Z_om-15">
          <mxGeometry x="-0.138" y="1" relative="1" as="geometry">
            <mxPoint as="offset" />
          </mxGeometry>
        </mxCell>
        <mxCell id="TxU8frnE93pZdJ28Z_om-18" value="&lt;b&gt;Arrêt d&#39;urgence&lt;/b&gt;" style="rounded=1;whiteSpace=wrap;html=1;strokeWidth=2;glass=0;shadow=1;fillColor=#fff2cc;strokeColor=#d6b656;" vertex="1" parent="1">
          <mxGeometry x="110" y="710" width="120" height="60" as="geometry" />
        </mxCell>
        <mxCell id="TxU8frnE93pZdJ28Z_om-19" style="edgeStyle=orthogonalEdgeStyle;rounded=0;orthogonalLoop=1;jettySize=auto;html=1;exitX=1;exitY=0.25;exitDx=0;exitDy=0;entryX=-0.005;entryY=0.282;entryDx=0;entryDy=0;entryPerimeter=0;strokeColor=#FFFED4;shadow=1;curved=0;" edge="1" parent="1" source="TxU8frnE93pZdJ28Z_om-18" target="TxU8frnE93pZdJ28Z_om-24">
          <mxGeometry relative="1" as="geometry" />
        </mxCell>
        <mxCell id="TxU8frnE93pZdJ28Z_om-21" value="V+" style="edgeLabel;html=1;align=center;verticalAlign=middle;resizable=0;points=[];" vertex="1" connectable="0" parent="TxU8frnE93pZdJ28Z_om-19">
          <mxGeometry x="-0.1299" y="-1" relative="1" as="geometry">
            <mxPoint as="offset" />
          </mxGeometry>
        </mxCell>
        <mxCell id="TxU8frnE93pZdJ28Z_om-22" style="edgeStyle=orthogonalEdgeStyle;rounded=0;orthogonalLoop=1;jettySize=auto;html=1;exitX=1;exitY=0.75;exitDx=0;exitDy=0;strokeColor=#FFFF00;entryX=0.027;entryY=0.353;entryDx=0;entryDy=0;entryPerimeter=0;shadow=1;" edge="1" parent="1" source="TxU8frnE93pZdJ28Z_om-18" target="TxU8frnE93pZdJ28Z_om-24">
          <mxGeometry relative="1" as="geometry">
            <mxPoint x="440" y="495" as="targetPoint" />
          </mxGeometry>
        </mxCell>
        <mxCell id="TxU8frnE93pZdJ28Z_om-23" value="V-" style="edgeLabel;html=1;align=center;verticalAlign=middle;resizable=0;points=[];" vertex="1" connectable="0" parent="TxU8frnE93pZdJ28Z_om-22">
          <mxGeometry x="-0.1427" relative="1" as="geometry">
            <mxPoint as="offset" />
          </mxGeometry>
        </mxCell>
        <mxCell id="TxU8frnE93pZdJ28Z_om-24" value="&lt;b&gt;&lt;font style=&quot;font-size: 21px;&quot;&gt;Drive&lt;/font&gt;&lt;/b&gt;" style="rounded=1;whiteSpace=wrap;html=1;fillColor=#f5f5f5;strokeColor=#666666;fontColor=#333333;shadow=1;" vertex="1" parent="1">
          <mxGeometry x="440" y="610" width="160" height="410" as="geometry" />
        </mxCell>
        <mxCell id="TxU8frnE93pZdJ28Z_om-25" value="&lt;b&gt;Lumière Avant&lt;/b&gt;" style="rounded=1;whiteSpace=wrap;html=1;strokeWidth=2;glass=0;shadow=1;" vertex="1" parent="1">
          <mxGeometry x="110" y="790" width="120" height="60" as="geometry" />
        </mxCell>
        <mxCell id="TxU8frnE93pZdJ28Z_om-26" style="edgeStyle=orthogonalEdgeStyle;rounded=0;orthogonalLoop=1;jettySize=auto;html=1;exitX=1;exitY=0.25;exitDx=0;exitDy=0;entryX=-0.004;entryY=0.477;entryDx=0;entryDy=0;entryPerimeter=0;shadow=1;" edge="1" parent="1" source="TxU8frnE93pZdJ28Z_om-25" target="TxU8frnE93pZdJ28Z_om-24">
          <mxGeometry relative="1" as="geometry" />
        </mxCell>
        <mxCell id="TxU8frnE93pZdJ28Z_om-29" value="V+" style="edgeLabel;html=1;align=center;verticalAlign=middle;resizable=0;points=[];" vertex="1" connectable="0" parent="TxU8frnE93pZdJ28Z_om-26">
          <mxGeometry x="-0.1241" relative="1" as="geometry">
            <mxPoint as="offset" />
          </mxGeometry>
        </mxCell>
        <mxCell id="TxU8frnE93pZdJ28Z_om-27" style="edgeStyle=orthogonalEdgeStyle;rounded=0;orthogonalLoop=1;jettySize=auto;html=1;exitX=1;exitY=0.75;exitDx=0;exitDy=0;entryX=-0.006;entryY=0.549;entryDx=0;entryDy=0;entryPerimeter=0;strokeColor=#FFFED4;shadow=1;" edge="1" parent="1" source="TxU8frnE93pZdJ28Z_om-25" target="TxU8frnE93pZdJ28Z_om-24">
          <mxGeometry relative="1" as="geometry" />
        </mxCell>
        <mxCell id="TxU8frnE93pZdJ28Z_om-28" value="V-" style="edgeLabel;html=1;align=center;verticalAlign=middle;resizable=0;points=[];" vertex="1" connectable="0" parent="TxU8frnE93pZdJ28Z_om-27">
          <mxGeometry x="-0.0805" y="1" relative="1" as="geometry">
            <mxPoint x="-6" as="offset" />
          </mxGeometry>
        </mxCell>
        <mxCell id="TxU8frnE93pZdJ28Z_om-30" value="&lt;b&gt;Lumière Arrière&lt;/b&gt;" style="rounded=1;whiteSpace=wrap;html=1;strokeWidth=2;glass=0;shadow=1;fillColor=#f8cecc;strokeColor=#b85450;" vertex="1" parent="1">
          <mxGeometry x="110" y="870" width="120" height="60" as="geometry" />
        </mxCell>
        <mxCell id="TxU8frnE93pZdJ28Z_om-31" style="edgeStyle=orthogonalEdgeStyle;rounded=0;orthogonalLoop=1;jettySize=auto;html=1;exitX=1;exitY=0.25;exitDx=0;exitDy=0;shadow=1;" edge="1" parent="1">
          <mxGeometry relative="1" as="geometry">
            <mxPoint x="230" y="890" as="sourcePoint" />
            <mxPoint x="440" y="890" as="targetPoint" />
          </mxGeometry>
        </mxCell>
        <mxCell id="TxU8frnE93pZdJ28Z_om-32" value="V+" style="edgeLabel;html=1;align=center;verticalAlign=middle;resizable=0;points=[];" vertex="1" connectable="0" parent="TxU8frnE93pZdJ28Z_om-31">
          <mxGeometry x="-0.1241" relative="1" as="geometry">
            <mxPoint as="offset" />
          </mxGeometry>
        </mxCell>
        <mxCell id="TxU8frnE93pZdJ28Z_om-33" style="edgeStyle=orthogonalEdgeStyle;rounded=0;orthogonalLoop=1;jettySize=auto;html=1;exitX=1;exitY=0.75;exitDx=0;exitDy=0;entryX=-0.006;entryY=0.549;entryDx=0;entryDy=0;entryPerimeter=0;strokeColor=#FFFED4;shadow=1;" edge="1" parent="1">
          <mxGeometry relative="1" as="geometry">
            <mxPoint x="230" y="920" as="sourcePoint" />
            <mxPoint x="439" y="920" as="targetPoint" />
          </mxGeometry>
        </mxCell>
        <mxCell id="TxU8frnE93pZdJ28Z_om-34" value="V-" style="edgeLabel;html=1;align=center;verticalAlign=middle;resizable=0;points=[];" vertex="1" connectable="0" parent="TxU8frnE93pZdJ28Z_om-33">
          <mxGeometry x="-0.0805" y="1" relative="1" as="geometry">
            <mxPoint x="-6" as="offset" />
          </mxGeometry>
        </mxCell>
        <mxCell id="TxU8frnE93pZdJ28Z_om-39" style="edgeStyle=orthogonalEdgeStyle;rounded=0;orthogonalLoop=1;jettySize=auto;html=1;exitX=1;exitY=0.75;exitDx=0;exitDy=0;entryX=0;entryY=0.75;entryDx=0;entryDy=0;" edge="1" parent="1" source="TxU8frnE93pZdJ28Z_om-37" target="TxU8frnE93pZdJ28Z_om-2">
          <mxGeometry relative="1" as="geometry">
            <Array as="points">
              <mxPoint x="230" y="458" />
              <mxPoint x="335" y="458" />
            </Array>
          </mxGeometry>
        </mxCell>
        <mxCell id="TxU8frnE93pZdJ28Z_om-41" value="V-" style="edgeLabel;html=1;align=center;verticalAlign=middle;resizable=0;points=[];" vertex="1" connectable="0" parent="TxU8frnE93pZdJ28Z_om-39">
          <mxGeometry x="-0.1107" relative="1" as="geometry">
            <mxPoint as="offset" />
          </mxGeometry>
        </mxCell>
        <mxCell id="TxU8frnE93pZdJ28Z_om-37" value="&lt;b&gt;Throttle&lt;/b&gt;" style="rounded=1;whiteSpace=wrap;html=1;fillColor=#bac8d3;strokeColor=#23445d;strokeWidth=2;glass=0;shadow=1;" vertex="1" parent="1">
          <mxGeometry x="110" y="410" width="120" height="60" as="geometry" />
        </mxCell>
        <mxCell id="TxU8frnE93pZdJ28Z_om-38" style="edgeStyle=orthogonalEdgeStyle;rounded=0;orthogonalLoop=1;jettySize=auto;html=1;exitX=1;exitY=0.25;exitDx=0;exitDy=0;entryX=-0.005;entryY=0.67;entryDx=0;entryDy=0;entryPerimeter=0;shadow=1;strokeColor=#FF0000;" edge="1" parent="1" source="TxU8frnE93pZdJ28Z_om-37" target="TxU8frnE93pZdJ28Z_om-2">
          <mxGeometry relative="1" as="geometry" />
        </mxCell>
        <mxCell id="TxU8frnE93pZdJ28Z_om-42" value="V+" style="edgeLabel;html=1;align=center;verticalAlign=middle;resizable=0;points=[];" vertex="1" connectable="0" parent="TxU8frnE93pZdJ28Z_om-38">
          <mxGeometry x="-0.138" y="1" relative="1" as="geometry">
            <mxPoint x="1" as="offset" />
          </mxGeometry>
        </mxCell>
        <mxCell id="TxU8frnE93pZdJ28Z_om-40" style="edgeStyle=orthogonalEdgeStyle;rounded=0;orthogonalLoop=1;jettySize=auto;html=1;entryX=0.005;entryY=0.708;entryDx=0;entryDy=0;entryPerimeter=0;strokeColor=#FFFED4;shadow=1;" edge="1" parent="1" source="TxU8frnE93pZdJ28Z_om-37" target="TxU8frnE93pZdJ28Z_om-2">
          <mxGeometry relative="1" as="geometry" />
        </mxCell>
        <mxCell id="TxU8frnE93pZdJ28Z_om-43" value="Signal" style="edgeLabel;html=1;align=center;verticalAlign=middle;resizable=0;points=[];" vertex="1" connectable="0" parent="TxU8frnE93pZdJ28Z_om-40">
          <mxGeometry x="-0.1513" y="1" relative="1" as="geometry">
            <mxPoint as="offset" />
          </mxGeometry>
        </mxCell>
        <mxCell id="TxU8frnE93pZdJ28Z_om-47" value="&lt;b&gt;Brake&lt;/b&gt;" style="rounded=1;whiteSpace=wrap;html=1;fillColor=#b1ddf0;strokeColor=#10739e;strokeWidth=2;glass=0;shadow=1;" vertex="1" parent="1">
          <mxGeometry x="110" y="170" width="120" height="60" as="geometry" />
        </mxCell>
        <mxCell id="TxU8frnE93pZdJ28Z_om-48" style="edgeStyle=orthogonalEdgeStyle;rounded=0;orthogonalLoop=1;jettySize=auto;html=1;exitX=1;exitY=0.25;exitDx=0;exitDy=0;entryX=0.01;entryY=0.085;entryDx=0;entryDy=0;entryPerimeter=0;shadow=1;" edge="1" parent="1" source="TxU8frnE93pZdJ28Z_om-47" target="TxU8frnE93pZdJ28Z_om-2">
          <mxGeometry relative="1" as="geometry" />
        </mxCell>
        <mxCell id="TxU8frnE93pZdJ28Z_om-51" value="V+" style="edgeLabel;html=1;align=center;verticalAlign=middle;resizable=0;points=[];" vertex="1" connectable="0" parent="TxU8frnE93pZdJ28Z_om-48">
          <mxGeometry x="-0.1371" y="1" relative="1" as="geometry">
            <mxPoint x="-1" as="offset" />
          </mxGeometry>
        </mxCell>
        <mxCell id="TxU8frnE93pZdJ28Z_om-49" style="edgeStyle=orthogonalEdgeStyle;rounded=0;orthogonalLoop=1;jettySize=auto;html=1;exitX=1;exitY=0.75;exitDx=0;exitDy=0;entryX=-0.002;entryY=0.157;entryDx=0;entryDy=0;entryPerimeter=0;strokeColor=#FFFED4;shadow=1;" edge="1" parent="1" source="TxU8frnE93pZdJ28Z_om-47" target="TxU8frnE93pZdJ28Z_om-2">
          <mxGeometry relative="1" as="geometry" />
        </mxCell>
        <mxCell id="TxU8frnE93pZdJ28Z_om-50" value="V-" style="edgeLabel;html=1;align=center;verticalAlign=middle;resizable=0;points=[];" vertex="1" connectable="0" parent="TxU8frnE93pZdJ28Z_om-49">
          <mxGeometry x="-0.0361" relative="1" as="geometry">
            <mxPoint x="-12" as="offset" />
          </mxGeometry>
        </mxCell>
        <mxCell id="TxU8frnE93pZdJ28Z_om-52" value="&lt;font style=&quot;font-size: 24px;&quot;&gt;&lt;b&gt;&lt;u&gt;Câblage de la trottinette&lt;/u&gt;&lt;/b&gt;&lt;/font&gt;" style="text;html=1;align=center;verticalAlign=middle;whiteSpace=wrap;rounded=0;" vertex="1" parent="1">
          <mxGeometry x="265" y="60" width="296" height="30" as="geometry" />
        </mxCell>
      </root>
    </mxGraphModel>
  </diagram>
</mxfile>
